<mxfile host="app.diagrams.net" agent="Mozilla/5.0 (Windows NT 10.0; Win64; x64) AppleWebKit/537.36 (KHTML, like Gecko) Chrome/129.0.0.0 Safari/537.36" version="24.8.0">
  <diagram name="Page-1" id="Y5MCfb7qoIU1A0xUo5_9">
    <mxGraphModel dx="794" dy="446" grid="1" gridSize="10" guides="1" tooltips="1" connect="1" arrows="1" fold="1" page="1" pageScale="1" pageWidth="850" pageHeight="1100" math="0" shadow="0">
      <root>
        <mxCell id="0" />
        <mxCell id="1" parent="0" />
        <mxCell id="gkq2kQ_aeOiLAzfeNN4r-9" style="edgeStyle=orthogonalEdgeStyle;rounded=0;orthogonalLoop=1;jettySize=auto;html=1;exitX=0.5;exitY=1;exitDx=0;exitDy=0;entryX=0.5;entryY=0;entryDx=0;entryDy=0;" edge="1" parent="1" source="gkq2kQ_aeOiLAzfeNN4r-1" target="gkq2kQ_aeOiLAzfeNN4r-2">
          <mxGeometry relative="1" as="geometry" />
        </mxCell>
        <mxCell id="gkq2kQ_aeOiLAzfeNN4r-1" value="mulai" style="ellipse;whiteSpace=wrap;html=1;" vertex="1" parent="1">
          <mxGeometry x="40" y="40" width="120" height="80" as="geometry" />
        </mxCell>
        <mxCell id="gkq2kQ_aeOiLAzfeNN4r-11" style="edgeStyle=orthogonalEdgeStyle;rounded=0;orthogonalLoop=1;jettySize=auto;html=1;exitX=0.5;exitY=1;exitDx=0;exitDy=0;entryX=0.5;entryY=0;entryDx=0;entryDy=0;" edge="1" parent="1" source="gkq2kQ_aeOiLAzfeNN4r-2" target="gkq2kQ_aeOiLAzfeNN4r-10">
          <mxGeometry relative="1" as="geometry" />
        </mxCell>
        <mxCell id="gkq2kQ_aeOiLAzfeNN4r-2" value="&lt;div&gt;jenis kendaraan&lt;/div&gt;mobil / sepeda motor" style="shape=parallelogram;perimeter=parallelogramPerimeter;whiteSpace=wrap;html=1;fixedSize=1;" vertex="1" parent="1">
          <mxGeometry x="22.5" y="160" width="155" height="60" as="geometry" />
        </mxCell>
        <mxCell id="gkq2kQ_aeOiLAzfeNN4r-15" style="edgeStyle=orthogonalEdgeStyle;rounded=0;orthogonalLoop=1;jettySize=auto;html=1;exitX=1;exitY=0.5;exitDx=0;exitDy=0;entryX=0;entryY=0.5;entryDx=0;entryDy=0;" edge="1" parent="1" source="gkq2kQ_aeOiLAzfeNN4r-4" target="gkq2kQ_aeOiLAzfeNN4r-14">
          <mxGeometry relative="1" as="geometry" />
        </mxCell>
        <mxCell id="gkq2kQ_aeOiLAzfeNN4r-4" value="apakah mobil?" style="rounded=0;whiteSpace=wrap;html=1;" vertex="1" parent="1">
          <mxGeometry x="40" y="360" width="120" height="60" as="geometry" />
        </mxCell>
        <mxCell id="gkq2kQ_aeOiLAzfeNN4r-20" style="edgeStyle=orthogonalEdgeStyle;rounded=0;orthogonalLoop=1;jettySize=auto;html=1;exitX=0.5;exitY=1;exitDx=0;exitDy=0;entryX=0;entryY=0.5;entryDx=0;entryDy=0;" edge="1" parent="1" source="gkq2kQ_aeOiLAzfeNN4r-5" target="gkq2kQ_aeOiLAzfeNN4r-16">
          <mxGeometry relative="1" as="geometry" />
        </mxCell>
        <mxCell id="gkq2kQ_aeOiLAzfeNN4r-5" value="apakah sepeda&lt;div&gt;motor?&lt;/div&gt;" style="rounded=0;whiteSpace=wrap;html=1;" vertex="1" parent="1">
          <mxGeometry x="40" y="460" width="120" height="60" as="geometry" />
        </mxCell>
        <mxCell id="gkq2kQ_aeOiLAzfeNN4r-13" style="edgeStyle=orthogonalEdgeStyle;rounded=0;orthogonalLoop=1;jettySize=auto;html=1;exitX=0.5;exitY=1;exitDx=0;exitDy=0;entryX=0.5;entryY=0;entryDx=0;entryDy=0;" edge="1" parent="1" source="gkq2kQ_aeOiLAzfeNN4r-10" target="gkq2kQ_aeOiLAzfeNN4r-4">
          <mxGeometry relative="1" as="geometry" />
        </mxCell>
        <mxCell id="gkq2kQ_aeOiLAzfeNN4r-10" value="lama parkir&lt;div&gt;per jam&lt;/div&gt;" style="shape=parallelogram;perimeter=parallelogramPerimeter;whiteSpace=wrap;html=1;fixedSize=1;" vertex="1" parent="1">
          <mxGeometry x="40" y="260" width="120" height="60" as="geometry" />
        </mxCell>
        <mxCell id="gkq2kQ_aeOiLAzfeNN4r-17" style="edgeStyle=orthogonalEdgeStyle;rounded=0;orthogonalLoop=1;jettySize=auto;html=1;exitX=0.5;exitY=1;exitDx=0;exitDy=0;entryX=1;entryY=0.5;entryDx=0;entryDy=0;" edge="1" parent="1" source="gkq2kQ_aeOiLAzfeNN4r-14" target="gkq2kQ_aeOiLAzfeNN4r-5">
          <mxGeometry relative="1" as="geometry" />
        </mxCell>
        <mxCell id="gkq2kQ_aeOiLAzfeNN4r-23" style="edgeStyle=orthogonalEdgeStyle;rounded=0;orthogonalLoop=1;jettySize=auto;html=1;exitX=1;exitY=0.5;exitDx=0;exitDy=0;entryX=0;entryY=0.5;entryDx=0;entryDy=0;" edge="1" parent="1" source="gkq2kQ_aeOiLAzfeNN4r-14" target="gkq2kQ_aeOiLAzfeNN4r-18">
          <mxGeometry relative="1" as="geometry" />
        </mxCell>
        <mxCell id="gkq2kQ_aeOiLAzfeNN4r-36" value="" style="edgeStyle=orthogonalEdgeStyle;rounded=0;orthogonalLoop=1;jettySize=auto;html=1;" edge="1" parent="1" source="gkq2kQ_aeOiLAzfeNN4r-14" target="gkq2kQ_aeOiLAzfeNN4r-18">
          <mxGeometry relative="1" as="geometry" />
        </mxCell>
        <mxCell id="gkq2kQ_aeOiLAzfeNN4r-14" value="if" style="rhombus;whiteSpace=wrap;html=1;" vertex="1" parent="1">
          <mxGeometry x="230" y="350" width="80" height="80" as="geometry" />
        </mxCell>
        <mxCell id="gkq2kQ_aeOiLAzfeNN4r-22" style="edgeStyle=orthogonalEdgeStyle;rounded=0;orthogonalLoop=1;jettySize=auto;html=1;exitX=1;exitY=0.5;exitDx=0;exitDy=0;entryX=0;entryY=0.5;entryDx=0;entryDy=0;" edge="1" parent="1" source="gkq2kQ_aeOiLAzfeNN4r-16" target="gkq2kQ_aeOiLAzfeNN4r-21">
          <mxGeometry relative="1" as="geometry" />
        </mxCell>
        <mxCell id="gkq2kQ_aeOiLAzfeNN4r-27" style="edgeStyle=orthogonalEdgeStyle;rounded=0;orthogonalLoop=1;jettySize=auto;html=1;exitX=0.5;exitY=1;exitDx=0;exitDy=0;entryX=0.5;entryY=0;entryDx=0;entryDy=0;" edge="1" parent="1" source="gkq2kQ_aeOiLAzfeNN4r-16" target="gkq2kQ_aeOiLAzfeNN4r-26">
          <mxGeometry relative="1" as="geometry" />
        </mxCell>
        <mxCell id="gkq2kQ_aeOiLAzfeNN4r-16" value="if" style="rhombus;whiteSpace=wrap;html=1;" vertex="1" parent="1">
          <mxGeometry x="230" y="540" width="80" height="80" as="geometry" />
        </mxCell>
        <mxCell id="gkq2kQ_aeOiLAzfeNN4r-18" value="biaya =&lt;div&gt;RP 5000 * lama parkir&lt;/div&gt;" style="shape=parallelogram;perimeter=parallelogramPerimeter;whiteSpace=wrap;html=1;fixedSize=1;" vertex="1" parent="1">
          <mxGeometry x="365" y="360" width="165" height="60" as="geometry" />
        </mxCell>
        <mxCell id="gkq2kQ_aeOiLAzfeNN4r-30" style="edgeStyle=orthogonalEdgeStyle;rounded=0;orthogonalLoop=1;jettySize=auto;html=1;exitX=1;exitY=0.5;exitDx=0;exitDy=0;entryX=0;entryY=0.5;entryDx=0;entryDy=0;" edge="1" parent="1" source="gkq2kQ_aeOiLAzfeNN4r-21" target="gkq2kQ_aeOiLAzfeNN4r-29">
          <mxGeometry relative="1" as="geometry">
            <Array as="points">
              <mxPoint x="580" y="580" />
              <mxPoint x="580" y="490" />
            </Array>
          </mxGeometry>
        </mxCell>
        <mxCell id="gkq2kQ_aeOiLAzfeNN4r-21" value="biaya =&lt;div&gt;RP 3000 * lama parkir&lt;/div&gt;" style="shape=parallelogram;perimeter=parallelogramPerimeter;whiteSpace=wrap;html=1;fixedSize=1;" vertex="1" parent="1">
          <mxGeometry x="365" y="550" width="165" height="60" as="geometry" />
        </mxCell>
        <mxCell id="gkq2kQ_aeOiLAzfeNN4r-28" style="edgeStyle=orthogonalEdgeStyle;rounded=0;orthogonalLoop=1;jettySize=auto;html=1;exitX=0;exitY=0.5;exitDx=0;exitDy=0;entryX=0;entryY=0.5;entryDx=0;entryDy=0;" edge="1" parent="1" source="gkq2kQ_aeOiLAzfeNN4r-26" target="gkq2kQ_aeOiLAzfeNN4r-1">
          <mxGeometry relative="1" as="geometry">
            <Array as="points">
              <mxPoint x="10" y="700" />
              <mxPoint x="10" y="80" />
            </Array>
          </mxGeometry>
        </mxCell>
        <mxCell id="gkq2kQ_aeOiLAzfeNN4r-26" value="kendaraan&lt;div&gt;tidak valid&lt;/div&gt;" style="shape=parallelogram;perimeter=parallelogramPerimeter;whiteSpace=wrap;html=1;fixedSize=1;" vertex="1" parent="1">
          <mxGeometry x="210" y="670" width="120" height="60" as="geometry" />
        </mxCell>
        <mxCell id="gkq2kQ_aeOiLAzfeNN4r-35" style="edgeStyle=orthogonalEdgeStyle;rounded=0;orthogonalLoop=1;jettySize=auto;html=1;exitX=0.5;exitY=1;exitDx=0;exitDy=0;entryX=0.5;entryY=0;entryDx=0;entryDy=0;" edge="1" parent="1" source="gkq2kQ_aeOiLAzfeNN4r-29" target="gkq2kQ_aeOiLAzfeNN4r-34">
          <mxGeometry relative="1" as="geometry" />
        </mxCell>
        <mxCell id="gkq2kQ_aeOiLAzfeNN4r-29" value="total yang harus&lt;div&gt;di bayar&lt;/div&gt;" style="shape=parallelogram;perimeter=parallelogramPerimeter;whiteSpace=wrap;html=1;fixedSize=1;" vertex="1" parent="1">
          <mxGeometry x="650" y="460" width="120" height="60" as="geometry" />
        </mxCell>
        <mxCell id="gkq2kQ_aeOiLAzfeNN4r-33" value="" style="endArrow=none;html=1;rounded=0;exitX=1;exitY=0.5;exitDx=0;exitDy=0;" edge="1" parent="1" source="gkq2kQ_aeOiLAzfeNN4r-18">
          <mxGeometry width="50" height="50" relative="1" as="geometry">
            <mxPoint x="490" y="540" as="sourcePoint" />
            <mxPoint x="580" y="490" as="targetPoint" />
            <Array as="points">
              <mxPoint x="580" y="390" />
            </Array>
          </mxGeometry>
        </mxCell>
        <mxCell id="gkq2kQ_aeOiLAzfeNN4r-34" value="selesai" style="ellipse;whiteSpace=wrap;html=1;" vertex="1" parent="1">
          <mxGeometry x="650" y="590" width="120" height="80" as="geometry" />
        </mxCell>
        <mxCell id="gkq2kQ_aeOiLAzfeNN4r-37" value="YA" style="text;html=1;align=center;verticalAlign=middle;resizable=0;points=[];autosize=1;strokeColor=none;fillColor=none;" vertex="1" parent="1">
          <mxGeometry x="320" y="370" width="40" height="30" as="geometry" />
        </mxCell>
        <mxCell id="gkq2kQ_aeOiLAzfeNN4r-38" value="TIDAK" style="text;html=1;align=center;verticalAlign=middle;resizable=0;points=[];autosize=1;strokeColor=none;fillColor=none;" vertex="1" parent="1">
          <mxGeometry x="190" y="468" width="60" height="30" as="geometry" />
        </mxCell>
        <mxCell id="gkq2kQ_aeOiLAzfeNN4r-39" value="YA" style="text;html=1;align=center;verticalAlign=middle;resizable=0;points=[];autosize=1;strokeColor=none;fillColor=none;" vertex="1" parent="1">
          <mxGeometry x="320" y="560" width="40" height="30" as="geometry" />
        </mxCell>
        <mxCell id="gkq2kQ_aeOiLAzfeNN4r-40" value="TIDAK" style="text;html=1;align=center;verticalAlign=middle;resizable=0;points=[];autosize=1;strokeColor=none;fillColor=none;" vertex="1" parent="1">
          <mxGeometry x="220" y="630" width="60" height="30" as="geometry" />
        </mxCell>
      </root>
    </mxGraphModel>
  </diagram>
</mxfile>
